<mxfile host="65bd71144e">
    <diagram id="U0F7osI2t801LqXB6X0H" name="Page-1">
        <mxGraphModel dx="1937" dy="1407" grid="0" gridSize="10" guides="1" tooltips="1" connect="1" arrows="1" fold="1" page="0" pageScale="1" pageWidth="850" pageHeight="1100" background="none" math="0" shadow="0">
            <root>
                <mxCell id="0"/>
                <mxCell id="1" parent="0"/>
                <mxCell id="u0K1L057uPk3Ml6hZSGG-8" style="edgeStyle=none;html=1;fillColor=#d5e8d4;strokeColor=#82b366;rounded=1;strokeWidth=2;exitX=1.007;exitY=0.106;exitDx=0;exitDy=0;exitPerimeter=0;" parent="1" source="u0K1L057uPk3Ml6hZSGG-36" edge="1">
                    <mxGeometry relative="1" as="geometry">
                        <Array as="points"/>
                        <mxPoint x="-195" y="315" as="sourcePoint"/>
                        <mxPoint x="591" y="310" as="targetPoint"/>
                    </mxGeometry>
                </mxCell>
                <mxCell id="u0K1L057uPk3Ml6hZSGG-35" style="edgeStyle=none;html=1;fillColor=#e51400;strokeColor=#FF8000;rounded=1;strokeWidth=2;" parent="1" edge="1">
                    <mxGeometry relative="1" as="geometry">
                        <Array as="points"/>
                        <mxPoint x="158" y="487" as="targetPoint"/>
                        <mxPoint x="158" y="592" as="sourcePoint"/>
                    </mxGeometry>
                </mxCell>
                <mxCell id="u0K1L057uPk3Ml6hZSGG-52" value="" style="endArrow=classic;html=1;fontColor=#FF0080;fillColor=#d5e8d4;strokeColor=#82b366;strokeWidth=2;exitX=1.028;exitY=0.124;exitDx=0;exitDy=0;exitPerimeter=0;" parent="1" edge="1">
                    <mxGeometry width="50" height="50" relative="1" as="geometry">
                        <mxPoint x="149.00400000000013" y="309.77199999999993" as="sourcePoint"/>
                        <mxPoint x="302" y="418" as="targetPoint"/>
                        <Array as="points">
                            <mxPoint x="302" y="310"/>
                        </Array>
                    </mxGeometry>
                </mxCell>
                <mxCell id="u0K1L057uPk3Ml6hZSGG-63" value="" style="rounded=0;whiteSpace=wrap;html=1;strokeColor=#FFFFFF;fillColor=none;fontColor=#FFFFFF;" parent="1" vertex="1">
                    <mxGeometry x="852" y="470" width="220" height="150" as="geometry"/>
                </mxCell>
                <mxCell id="u0K1L057uPk3Ml6hZSGG-3" value="" style="rounded=0;whiteSpace=wrap;html=1;strokeColor=#FFFFFF;fillColor=none;fontColor=#FFFFFF;" parent="1" vertex="1">
                    <mxGeometry x="852" y="268" width="220" height="150" as="geometry"/>
                </mxCell>
                <mxCell id="u0K1L057uPk3Ml6hZSGG-4" value="" style="endArrow=classic;html=1;strokeColor=#FFFFFF;exitX=0;exitY=0.75;exitDx=0;exitDy=0;entryX=-0.026;entryY=0.419;entryDx=0;entryDy=0;entryPerimeter=0;" parent="1" source="u0K1L057uPk3Ml6hZSGG-6" target="u0K1L057uPk3Ml6hZSGG-58" edge="1">
                    <mxGeometry width="50" height="50" relative="1" as="geometry">
                        <mxPoint x="1235.6599999999999" y="410" as="sourcePoint"/>
                        <mxPoint x="1236" y="352" as="targetPoint"/>
                    </mxGeometry>
                </mxCell>
                <mxCell id="u0K1L057uPk3Ml6hZSGG-5" value="" style="endArrow=none;dashed=1;html=1;dashPattern=1 4;strokeWidth=2;exitX=0.5;exitY=0;exitDx=0;exitDy=0;strokeColor=#FFFFFF;" parent="1" edge="1">
                    <mxGeometry width="50" height="50" relative="1" as="geometry">
                        <mxPoint x="663.67" y="268.5" as="sourcePoint"/>
                        <mxPoint x="664.17" y="177.5" as="targetPoint"/>
                    </mxGeometry>
                </mxCell>
                <mxCell id="u0K1L057uPk3Ml6hZSGG-6" value="" style="rounded=0;whiteSpace=wrap;html=1;dashed=1;rotation=90;strokeColor=#FFFFFF;fillColor=none;direction=south;" parent="1" vertex="1">
                    <mxGeometry x="244.04" y="226.17" width="121.81" height="449.34" as="geometry"/>
                </mxCell>
                <mxCell id="u0K1L057uPk3Ml6hZSGG-9" value="User" style="shape=umlActor;verticalLabelPosition=bottom;verticalAlign=top;html=1;outlineConnect=0;strokeColor=#99FF33;strokeWidth=3;fontColor=#FFFFFF;fillColor=none;" parent="1" vertex="1">
                    <mxGeometry x="-208.99999999999994" y="366" width="30" height="60" as="geometry"/>
                </mxCell>
                <mxCell id="u0K1L057uPk3Ml6hZSGG-10" value="Smart Contract&amp;nbsp;&lt;br&gt;w/ &lt;b&gt;SOLIDITY&lt;/b&gt;" style="shape=cube;whiteSpace=wrap;html=1;boundedLbl=1;backgroundOutline=1;darkOpacity=0.05;darkOpacity2=0.1;fillColor=none;strokeColor=#FFFFFF;fontColor=#FFFFFF;" parent="1" vertex="1">
                    <mxGeometry x="871" y="319" width="184" height="76" as="geometry"/>
                </mxCell>
                <mxCell id="u0K1L057uPk3Ml6hZSGG-11" value="Polygon Main Net" style="text;html=1;strokeColor=none;fillColor=none;align=left;verticalAlign=middle;whiteSpace=wrap;rounded=0;dashed=1;fontColor=#FFFFFF;" parent="1" vertex="1">
                    <mxGeometry x="865" y="275" width="120" height="30" as="geometry"/>
                </mxCell>
                <mxCell id="u0K1L057uPk3Ml6hZSGG-12" value="IPFS" style="text;html=1;strokeColor=none;fillColor=none;align=left;verticalAlign=middle;whiteSpace=wrap;rounded=0;dashed=1;fontColor=#FFFFFF;" parent="1" vertex="1">
                    <mxGeometry x="865" y="478" width="30" height="30" as="geometry"/>
                </mxCell>
                <mxCell id="u0K1L057uPk3Ml6hZSGG-13" value="JSON&lt;br&gt;data File" style="text;html=1;strokeColor=none;fillColor=none;align=center;verticalAlign=middle;whiteSpace=wrap;rounded=0;dashed=1;fontColor=#FFFFFF;" parent="1" vertex="1">
                    <mxGeometry x="762.41" y="572" width="51" height="30" as="geometry"/>
                </mxCell>
                <mxCell id="u0K1L057uPk3Ml6hZSGG-14" value="&lt;div&gt;&lt;span&gt;IPFS CID Hash&lt;/span&gt;&lt;/div&gt;" style="text;html=1;strokeColor=none;fillColor=none;align=center;verticalAlign=middle;whiteSpace=wrap;rounded=0;dashed=1;fontColor=#FFFFFF;" parent="1" vertex="1">
                    <mxGeometry x="763" y="481" width="54" height="30" as="geometry"/>
                </mxCell>
                <mxCell id="u0K1L057uPk3Ml6hZSGG-15" value="Resource CID via Contract method" style="text;html=1;strokeColor=none;fillColor=none;align=center;verticalAlign=middle;whiteSpace=wrap;rounded=0;dashed=1;fontColor=#FFFFFF;" parent="1" vertex="1">
                    <mxGeometry x="754" y="285" width="82" height="30" as="geometry"/>
                </mxCell>
                <mxCell id="u0K1L057uPk3Ml6hZSGG-16" value="" style="endArrow=classic;html=1;dashed=1;dashPattern=1 4;fontColor=#FFFFFF;labelBorderColor=none;labelBackgroundColor=none;strokeColor=#FFFFFF;exitX=1.03;exitY=0.148;exitDx=0;exitDy=0;exitPerimeter=0;" parent="1" source="u0K1L057uPk3Ml6hZSGG-58" edge="1">
                    <mxGeometry width="50" height="50" relative="1" as="geometry">
                        <mxPoint x="1108.6599999999999" y="289.5" as="sourcePoint"/>
                        <mxPoint x="850" y="325" as="targetPoint"/>
                    </mxGeometry>
                </mxCell>
                <mxCell id="u0K1L057uPk3Ml6hZSGG-17" value="" style="endArrow=classic;html=1;dashed=1;dashPattern=1 4;strokeColor=#FFFFFF;entryX=1.054;entryY=0.29;entryDx=0;entryDy=0;entryPerimeter=0;" parent="1" edge="1">
                    <mxGeometry width="50" height="50" relative="1" as="geometry">
                        <mxPoint x="848" y="375" as="sourcePoint"/>
                        <mxPoint x="738.7219999999998" y="375.3700000000001" as="targetPoint"/>
                    </mxGeometry>
                </mxCell>
                <mxCell id="u0K1L057uPk3Ml6hZSGG-18" value="Contract state" style="text;html=1;strokeColor=none;fillColor=none;align=center;verticalAlign=middle;whiteSpace=wrap;rounded=0;dashed=1;fontColor=#FFFFFF;" parent="1" vertex="1">
                    <mxGeometry x="760.5" y="385" width="60" height="30" as="geometry"/>
                </mxCell>
                <mxCell id="u0K1L057uPk3Ml6hZSGG-19" value="" style="sketch=0;outlineConnect=0;fontColor=#FFFFFF;fillColor=#FFFFFF;strokeColor=none;dashed=0;verticalLabelPosition=bottom;verticalAlign=top;align=center;html=1;fontSize=12;fontStyle=0;aspect=fixed;pointerEvents=1;shape=mxgraph.aws4.resource;shadow=0;" parent="1" vertex="1">
                    <mxGeometry x="919" y="507.40999999999997" width="81.45" height="83.59" as="geometry"/>
                </mxCell>
                <mxCell id="u0K1L057uPk3Ml6hZSGG-20" value="ISRO Geo Data" style="rounded=0;whiteSpace=wrap;html=1;fontColor=#FFFFFF;fillColor=none;strokeColor=#FFFFFF;" parent="1" vertex="1">
                    <mxGeometry x="387" y="418" width="120" height="69" as="geometry"/>
                </mxCell>
                <mxCell id="u0K1L057uPk3Ml6hZSGG-23" value="Super User" style="shape=umlActor;verticalLabelPosition=bottom;verticalAlign=top;html=1;outlineConnect=0;strokeColor=#FF9933;strokeWidth=3;fontColor=#FFFFFF;fillColor=none;" parent="1" vertex="1">
                    <mxGeometry x="-210.99999999999997" y="465" width="30" height="60" as="geometry"/>
                </mxCell>
                <mxCell id="u0K1L057uPk3Ml6hZSGG-24" value="NextJS App" style="text;html=1;align=center;verticalAlign=middle;whiteSpace=wrap;rounded=0;fontColor=#FFFFFF;" parent="1" vertex="1">
                    <mxGeometry x="256" y="208" width="90" height="30" as="geometry"/>
                </mxCell>
                <mxCell id="u0K1L057uPk3Ml6hZSGG-25" value="Fetch Data w/ API key" style="text;html=1;strokeColor=none;fillColor=none;align=right;verticalAlign=middle;whiteSpace=wrap;rounded=0;fontColor=#FFFFFF;" parent="1" vertex="1">
                    <mxGeometry x="371" y="325" width="136" height="32" as="geometry"/>
                </mxCell>
                <mxCell id="u0K1L057uPk3Ml6hZSGG-26" value="Register app &amp;amp; Get API key" style="text;html=1;strokeColor=none;fillColor=none;align=right;verticalAlign=middle;whiteSpace=wrap;rounded=0;fontColor=#FFFFFF;" parent="1" vertex="1">
                    <mxGeometry x="90" y="339" width="59.79" height="30" as="geometry"/>
                </mxCell>
                <mxCell id="u0K1L057uPk3Ml6hZSGG-27" value="Manage&amp;nbsp; API Docs&amp;nbsp; w/ CMS" style="text;html=1;strokeColor=none;fillColor=none;align=right;verticalAlign=middle;whiteSpace=wrap;rounded=0;fontColor=#FFFFFF;" parent="1" vertex="1">
                    <mxGeometry x="223.5" y="528" width="70" height="45" as="geometry"/>
                </mxCell>
                <mxCell id="u0K1L057uPk3Ml6hZSGG-28" value="&lt;span style=&quot;font-family: &amp;quot;helvetica&amp;quot;&quot;&gt;Manage Data Resources&lt;/span&gt;" style="text;html=1;strokeColor=none;fillColor=none;align=right;verticalAlign=middle;whiteSpace=wrap;rounded=0;fontColor=#FFFFFF;" parent="1" vertex="1">
                    <mxGeometry x="396.1800000000001" y="534.5" width="42.61" height="30" as="geometry"/>
                </mxCell>
                <mxCell id="u0K1L057uPk3Ml6hZSGG-29" value="Read API Docs" style="text;html=1;strokeColor=none;fillColor=none;align=right;verticalAlign=middle;whiteSpace=wrap;rounded=0;fontColor=#FFFFFF;labelBackgroundColor=none;" parent="1" vertex="1">
                    <mxGeometry x="247.9999999999999" y="330.5" width="45.5" height="47" as="geometry"/>
                </mxCell>
                <mxCell id="u0K1L057uPk3Ml6hZSGG-31" value="API Requests" style="rounded=0;whiteSpace=wrap;html=1;fontColor=#FFFFFF;fillColor=none;strokeColor=#FFFFFF;" parent="1" vertex="1">
                    <mxGeometry x="105" y="418" width="108" height="69" as="geometry"/>
                </mxCell>
                <mxCell id="u0K1L057uPk3Ml6hZSGG-32" value="Documentation" style="rounded=0;whiteSpace=wrap;html=1;fontColor=#FFFFFF;fillColor=none;strokeColor=#FFFFFF;" parent="1" vertex="1">
                    <mxGeometry x="240.96" y="418" width="120" height="69" as="geometry"/>
                </mxCell>
                <mxCell id="u0K1L057uPk3Ml6hZSGG-33" value="" style="endArrow=classic;html=1;fontColor=#FF0080;fillColor=#d5e8d4;strokeColor=#82b366;strokeWidth=2;exitX=1.022;exitY=0.106;exitDx=0;exitDy=0;exitPerimeter=0;" parent="1" source="u0K1L057uPk3Ml6hZSGG-36" edge="1">
                    <mxGeometry width="50" height="50" relative="1" as="geometry">
                        <mxPoint x="6.003999999999905" y="309.77199999999993" as="sourcePoint"/>
                        <mxPoint x="159" y="418" as="targetPoint"/>
                        <Array as="points">
                            <mxPoint x="159" y="310"/>
                        </Array>
                    </mxGeometry>
                </mxCell>
                <mxCell id="u0K1L057uPk3Ml6hZSGG-36" value="Authentication &lt;br&gt;with &lt;br&gt;Web3Auth SDK &lt;br&gt;+ &lt;br&gt;Connect to &lt;br&gt;Wallet&lt;br&gt;eg.&lt;br&gt;MetaMask,&lt;br&gt;Coinbase,&lt;br&gt;Ledger&lt;br&gt;Nano, etc." style="rounded=0;whiteSpace=wrap;html=1;strokeColor=#FFFFFF;fillColor=none;fontColor=#FFFFFF;fontSize=15;" parent="1" vertex="1">
                    <mxGeometry x="-106" y="273" width="143" height="353" as="geometry"/>
                </mxCell>
                <mxCell id="u0K1L057uPk3Ml6hZSGG-37" value="" style="endArrow=classic;html=1;dashed=1;dashPattern=1 4;strokeColor=#FFFFFF;exitX=0.993;exitY=0.69;exitDx=0;exitDy=0;exitPerimeter=0;" parent="1" source="u0K1L057uPk3Ml6hZSGG-58" edge="1">
                    <mxGeometry width="50" height="50" relative="1" as="geometry">
                        <mxPoint x="1610" y="208" as="sourcePoint"/>
                        <mxPoint x="852" y="517" as="targetPoint"/>
                    </mxGeometry>
                </mxCell>
                <mxCell id="u0K1L057uPk3Ml6hZSGG-38" value="" style="endArrow=classic;html=1;dashed=1;dashPattern=1 4;strokeColor=#FFFFFF;entryX=1.002;entryY=0.83;entryDx=0;entryDy=0;entryPerimeter=0;" parent="1" edge="1">
                    <mxGeometry width="50" height="50" relative="1" as="geometry">
                        <mxPoint x="846" y="563" as="sourcePoint"/>
                        <mxPoint x="736.2860000000001" y="562.9899999999998" as="targetPoint"/>
                    </mxGeometry>
                </mxCell>
                <mxCell id="u0K1L057uPk3Ml6hZSGG-39" value="&lt;span style=&quot;font-weight: normal; font-size: 10px;&quot;&gt;via &lt;br style=&quot;font-size: 10px;&quot;&gt;&lt;/span&gt;&lt;span style=&quot;font-size: 10px;&quot;&gt;ORBIT DB&lt;/span&gt;" style="text;html=1;align=center;verticalAlign=middle;whiteSpace=wrap;rounded=0;dashed=1;fontColor=#FFFFFF;fontStyle=1;fontSize=10;" parent="1" vertex="1">
                    <mxGeometry x="766" y="525" width="55" height="30" as="geometry"/>
                </mxCell>
                <mxCell id="u0K1L057uPk3Ml6hZSGG-40" value="&lt;font color=&quot;#ffffff&quot; style=&quot;font-size: 11px&quot;&gt;via &lt;b&gt;web3, ether.js&lt;/b&gt;&lt;br style=&quot;font-size: 11px&quot;&gt;&lt;/font&gt;" style="text;html=1;align=center;verticalAlign=middle;whiteSpace=wrap;rounded=0;dashed=1;fontColor=#000000;fontStyle=0;fontSize=11;" parent="1" vertex="1">
                    <mxGeometry x="766" y="336" width="57" height="30" as="geometry"/>
                </mxCell>
                <mxCell id="u0K1L057uPk3Ml6hZSGG-41" value="" style="endArrow=classic;html=1;verticalAlign=middle;horizontal=1;strokeColor=#FFFFFF;" parent="1" edge="1">
                    <mxGeometry width="50" height="50" relative="1" as="geometry">
                        <mxPoint x="590" y="466" as="sourcePoint"/>
                        <mxPoint x="531" y="466" as="targetPoint"/>
                    </mxGeometry>
                </mxCell>
                <mxCell id="u0K1L057uPk3Ml6hZSGG-44" value="Manage API key requests" style="text;html=1;strokeColor=none;fillColor=none;align=right;verticalAlign=middle;whiteSpace=wrap;rounded=0;fontColor=#FFFFFF;labelBackgroundColor=none;" parent="1" vertex="1">
                    <mxGeometry x="104.28999999999989" y="526" width="45.5" height="47" as="geometry"/>
                </mxCell>
                <mxCell id="u0K1L057uPk3Ml6hZSGG-49" style="edgeStyle=none;rounded=1;orthogonalLoop=1;jettySize=auto;html=1;exitX=0.5;exitY=1;exitDx=0;exitDy=0;dashed=1;dashPattern=1 4;labelBackgroundColor=none;labelBorderColor=none;fontSize=15;fontColor=#FFFFFF;endArrow=none;endFill=0;strokeColor=#FFFFFF;strokeWidth=2;" parent="1" source="u0K1L057uPk3Ml6hZSGG-6" target="u0K1L057uPk3Ml6hZSGG-6" edge="1">
                    <mxGeometry relative="1" as="geometry"/>
                </mxCell>
                <mxCell id="u0K1L057uPk3Ml6hZSGG-55" style="edgeStyle=none;html=1;fillColor=#e51400;strokeColor=#FF8000;rounded=1;strokeWidth=2;exitX=1;exitY=0.908;exitDx=0;exitDy=0;exitPerimeter=0;" parent="1" edge="1">
                    <mxGeometry relative="1" as="geometry">
                        <Array as="points">
                            <mxPoint x="302" y="593"/>
                        </Array>
                        <mxPoint x="302" y="486" as="targetPoint"/>
                        <mxPoint x="37" y="591.5239999999999" as="sourcePoint"/>
                    </mxGeometry>
                </mxCell>
                <mxCell id="u0K1L057uPk3Ml6hZSGG-56" style="edgeStyle=none;html=1;fillColor=#e51400;strokeColor=#FF8000;rounded=1;strokeWidth=2;entryX=0.5;entryY=1;entryDx=0;entryDy=0;" parent="1" target="u0K1L057uPk3Ml6hZSGG-20" edge="1">
                    <mxGeometry relative="1" as="geometry">
                        <Array as="points">
                            <mxPoint x="448" y="593"/>
                        </Array>
                        <mxPoint x="445.9999999999998" y="494" as="targetPoint"/>
                        <mxPoint x="291" y="593" as="sourcePoint"/>
                    </mxGeometry>
                </mxCell>
                <mxCell id="u0K1L057uPk3Ml6hZSGG-58" value="&lt;b&gt;Express &lt;br&gt;&lt;/b&gt;Backend &lt;br&gt;API" style="rounded=0;whiteSpace=wrap;html=1;strokeColor=#FFFFFF;fillColor=none;fontColor=#FFFFFF;fontSize=15;" parent="1" vertex="1">
                    <mxGeometry x="593" y="273" width="143" height="353" as="geometry"/>
                </mxCell>
                <mxCell id="u0K1L057uPk3Ml6hZSGG-59" value="" style="endArrow=none;dashed=1;html=1;dashPattern=1 4;strokeWidth=2;exitX=0.5;exitY=0;exitDx=0;exitDy=0;strokeColor=#FFFFFF;" parent="1" edge="1">
                    <mxGeometry width="50" height="50" relative="1" as="geometry">
                        <mxPoint x="663.6700000000001" y="717.5" as="sourcePoint"/>
                        <mxPoint x="664.1700000000001" y="626.4999999999999" as="targetPoint"/>
                    </mxGeometry>
                </mxCell>
                <mxCell id="u0K1L057uPk3Ml6hZSGG-60" value="" style="endArrow=none;dashed=1;html=1;dashPattern=1 4;strokeWidth=2;exitX=0.5;exitY=0;exitDx=0;exitDy=0;strokeColor=#FFFFFF;" parent="1" edge="1">
                    <mxGeometry width="50" height="50" relative="1" as="geometry">
                        <mxPoint x="-38.32999999999993" y="719.5" as="sourcePoint"/>
                        <mxPoint x="-37.82999999999993" y="628.5" as="targetPoint"/>
                    </mxGeometry>
                </mxCell>
                <mxCell id="u0K1L057uPk3Ml6hZSGG-61" value="" style="endArrow=none;dashed=1;html=1;dashPattern=1 4;strokeWidth=2;exitX=0.5;exitY=0;exitDx=0;exitDy=0;strokeColor=#FFFFFF;" parent="1" edge="1">
                    <mxGeometry width="50" height="50" relative="1" as="geometry">
                        <mxPoint x="-37.32999999999993" y="269.5" as="sourcePoint"/>
                        <mxPoint x="-36.82999999999993" y="178.5" as="targetPoint"/>
                    </mxGeometry>
                </mxCell>
                <mxCell id="u0K1L057uPk3Ml6hZSGG-65" value="" style="endArrow=none;html=1;fontColor=#FF0080;fillColor=#d5e8d4;strokeColor=#82b366;strokeWidth=2;endFill=0;entryX=0.046;entryY=0.106;entryDx=0;entryDy=0;entryPerimeter=0;" parent="1" edge="1">
                    <mxGeometry width="50" height="50" relative="1" as="geometry">
                        <mxPoint x="-195" y="344" as="sourcePoint"/>
                        <mxPoint x="-106.4219999999998" y="310.4179999999999" as="targetPoint"/>
                        <Array as="points">
                            <mxPoint x="-195" y="310"/>
                        </Array>
                    </mxGeometry>
                </mxCell>
                <mxCell id="u0K1L057uPk3Ml6hZSGG-67" style="edgeStyle=none;html=1;fillColor=#e51400;strokeColor=#FF8000;rounded=1;strokeWidth=2;endArrow=none;endFill=0;exitX=0.007;exitY=0.887;exitDx=0;exitDy=0;exitPerimeter=0;" parent="1" edge="1">
                    <mxGeometry relative="1" as="geometry">
                        <Array as="points">
                            <mxPoint x="-197" y="589"/>
                        </Array>
                        <mxPoint x="-197" y="561" as="targetPoint"/>
                        <mxPoint x="-106.99900000000002" y="589.111" as="sourcePoint"/>
                    </mxGeometry>
                </mxCell>
                <mxCell id="2" value="" style="whiteSpace=wrap;html=1;" parent="1" vertex="1">
                    <mxGeometry x="-23" y="260" width="120" height="60" as="geometry"/>
                </mxCell>
                <mxCell id="3" value="" style="whiteSpace=wrap;html=1;" parent="1" vertex="1">
                    <mxGeometry x="-23" y="260" width="120" height="60" as="geometry"/>
                </mxCell>
                <mxCell id="4" value="" style="whiteSpace=wrap;html=1;" parent="1" vertex="1">
                    <mxGeometry x="-23" y="260" width="120" height="60" as="geometry"/>
                </mxCell>
                <mxCell id="5" value="" style="whiteSpace=wrap;html=1;" parent="1" vertex="1">
                    <mxGeometry x="-23" y="260" width="120" height="60" as="geometry"/>
                </mxCell>
                <mxCell id="6" value="" style="whiteSpace=wrap;html=1;" parent="1" vertex="1">
                    <mxGeometry x="-23" y="260" width="120" height="60" as="geometry"/>
                </mxCell>
            </root>
        </mxGraphModel>
    </diagram>
</mxfile>